<svg width="74" height="74" viewBox="0 0 74 74" fill="none" xmlns="http://www.w3.org/2000/svg">
<path d="M37.1376 71.2753C55.9912 71.2753 71.2753 55.9912 71.2753 37.1376C71.2753 18.2839 55.9912 3 37.1376 3C18.2839 3 3 18.2839 3 37.1376C3 55.9912 18.2839 71.2753 37.1376 71.2753Z" stroke="white" stroke-width="5.12065" stroke-linecap="round" stroke-linejoin="round"/>
<path d="M45.1034 61.0342V54.6744C45.1887 53.6178 45.0423 52.5554 44.6733 51.5583C44.3046 50.5611 43.7219 49.6517 42.9643 48.8908C50.1104 48.1152 57.6207 45.478 57.6207 33.379C57.62 30.2849 56.3978 27.3097 54.2069 25.0689C55.2443 22.3621 55.1709 19.3702 54.0021 16.7146C54.0021 16.7146 51.3165 15.9391 45.1034 19.9943C39.8872 18.6178 34.389 18.6178 29.1726 19.9943C22.9595 15.9391 20.274 16.7146 20.274 16.7146C19.1051 19.3702 19.0318 22.3621 20.0692 25.0689C17.8619 27.3263 16.6384 30.3284 16.6554 33.4452C16.6554 45.4558 24.1657 48.093 31.3118 48.957C30.5632 49.7104 29.9857 50.6089 29.6171 51.5941C29.2485 52.579 29.097 53.6284 29.1726 54.6744V61.0342" stroke="white" stroke-width="5.12065" stroke-linecap="round" stroke-linejoin="round"/>
<path d="M29.1721 56.604C22.3446 58.7605 16.655 56.604 13.2412 49.9561" stroke="white" stroke-width="5.12065" stroke-linecap="round" stroke-linejoin="round"/>
</svg>
