<svg width="75" height="75" viewBox="0 0 75 75" fill="none" xmlns="http://www.w3.org/2000/svg">
<path d="M37.1381 52.3104C45.5174 52.3104 52.3104 45.5174 52.3104 37.1381C52.3104 28.7587 45.5174 21.9658 37.1381 21.9658C28.7587 21.9658 21.9658 28.7587 21.9658 37.1381C21.9658 45.5174 28.7587 52.3104 37.1381 52.3104Z" stroke="white" stroke-width="5.68961" stroke-linecap="round" stroke-linejoin="round"/>
<path d="M3 52.3099V21.9654C3 11.4911 11.4911 3 21.9654 3H52.3099C62.7841 3 71.2753 11.4911 71.2753 21.9654V52.3099C71.2753 62.7841 62.7841 71.2753 52.3099 71.2753H21.9654C11.4911 71.2753 3 62.7841 3 52.3099Z" stroke="white" stroke-width="5.68961"/>
<path d="M58 16.3146L58.0379 16.2725" stroke="white" stroke-width="5.68961" stroke-linecap="round" stroke-linejoin="round"/>
</svg>
