<svg width="160" height="40" viewBox="0 0 160 40" fill="none" xmlns="http://www.w3.org/2000/svg">
<path d="M7.09844 0.919999V17.72C7.09844 19.4 7.51177 20.6933 8.33844 21.6C9.1651 22.5067 10.3784 22.96 11.9784 22.96C13.5784 22.96 14.8051 22.5067 15.6584 21.6C16.5118 20.6933 16.9384 19.4 16.9384 17.72V0.919999H23.7784V17.68C23.7784 20.1867 23.2451 22.3067 22.1784 24.04C21.1118 25.7733 19.6718 27.08 17.8584 27.96C16.0718 28.84 14.0718 29.28 11.8584 29.28C9.6451 29.28 7.65844 28.8533 5.89844 28C4.1651 27.12 2.79177 25.8133 1.77844 24.08C0.765104 22.32 0.258438 20.1867 0.258438 17.68V0.919999H7.09844ZM30.4216 17.8C30.4216 15.5067 30.8482 13.4933 31.7016 11.76C32.5816 10.0267 33.7682 8.69333 35.2616 7.76C36.7549 6.82667 38.4216 6.36 40.2616 6.36C41.8349 6.36 43.2082 6.68 44.3816 7.32C45.5816 7.96 46.5016 8.8 47.1416 9.84V6.68H53.9816V29H47.1416V25.84C46.4749 26.88 45.5416 27.72 44.3416 28.36C43.1682 29 41.7949 29.32 40.2216 29.32C38.4082 29.32 36.7549 28.8533 35.2616 27.92C33.7682 26.96 32.5816 25.6133 31.7016 23.88C30.8482 22.12 30.4216 20.0933 30.4216 17.8ZM47.1416 17.84C47.1416 16.1333 46.6616 14.7867 45.7016 13.8C44.7682 12.8133 43.6216 12.32 42.2616 12.32C40.9016 12.32 39.7416 12.8133 38.7816 13.8C37.8482 14.76 37.3816 16.0933 37.3816 17.8C37.3816 19.5067 37.8482 20.8667 38.7816 21.88C39.7416 22.8667 40.9016 23.36 42.2616 23.36C43.6216 23.36 44.7682 22.8667 45.7016 21.88C46.6616 20.8933 47.1416 19.5467 47.1416 17.84ZM75.73 6.44C78.3433 6.44 80.4233 7.29333 81.97 9C83.5433 10.68 84.33 13 84.33 15.96V29H77.53V16.88C77.53 15.3867 77.1433 14.2267 76.37 13.4C75.5967 12.5733 74.5567 12.16 73.25 12.16C71.9433 12.16 70.9033 12.5733 70.13 13.4C69.3567 14.2267 68.97 15.3867 68.97 16.88V29H62.13V6.68H68.97V9.64C69.6633 8.65333 70.5967 7.88 71.77 7.32C72.9433 6.73333 74.2633 6.44 75.73 6.44ZM100.763 6.36C102.336 6.36 103.71 6.68 104.883 7.32C106.083 7.96 107.003 8.8 107.643 9.84V6.68H114.483V28.96C114.483 31.0133 114.07 32.8667 113.243 34.52C112.443 36.2 111.203 37.5333 109.523 38.52C107.87 39.5067 105.803 40 103.323 40C100.016 40 97.3365 39.2133 95.2831 37.64C93.2298 36.0933 92.0565 33.9867 91.7631 31.32H98.5231C98.7365 32.1733 99.2431 32.84 100.043 33.32C100.843 33.8267 101.83 34.08 103.003 34.08C104.416 34.08 105.536 33.6667 106.363 32.84C107.216 32.04 107.643 30.7467 107.643 28.96V25.8C106.976 26.84 106.056 27.6933 104.883 28.36C103.71 29 102.336 29.32 100.763 29.32C98.9231 29.32 97.2565 28.8533 95.7631 27.92C94.2698 26.96 93.0831 25.6133 92.2031 23.88C91.3498 22.12 90.9231 20.0933 90.9231 17.8C90.9231 15.5067 91.3498 13.4933 92.2031 11.76C93.0831 10.0267 94.2698 8.69333 95.7631 7.76C97.2565 6.82667 98.9231 6.36 100.763 6.36ZM107.643 17.84C107.643 16.1333 107.163 14.7867 106.203 13.8C105.27 12.8133 104.123 12.32 102.763 12.32C101.403 12.32 100.243 12.8133 99.2831 13.8C98.3498 14.76 97.8831 16.0933 97.8831 17.8C97.8831 19.5067 98.3498 20.8667 99.2831 21.88C100.243 22.8667 101.403 23.36 102.763 23.36C104.123 23.36 105.27 22.8667 106.203 21.88C107.163 20.8933 107.643 19.5467 107.643 17.84ZM129.472 0.919999V29H122.632V0.919999H129.472ZM151.228 6.44C153.842 6.44 155.922 7.29333 157.468 9C159.042 10.68 159.828 13 159.828 15.96V29H153.028V16.88C153.028 15.3867 152.642 14.2267 151.868 13.4C151.095 12.5733 150.055 12.16 148.748 12.16C147.442 12.16 146.402 12.5733 145.628 13.4C144.855 14.2267 144.468 15.3867 144.468 16.88V29H137.628V6.68H144.468V9.64C145.162 8.65333 146.095 7.88 147.268 7.32C148.442 6.73333 149.762 6.44 151.228 6.44Z" fill="#1CC88A"/>
</svg>
