<svg width="98" height="24" viewBox="0 0 98 24" fill="none" xmlns="http://www.w3.org/2000/svg">
<path d="M5.152 0.079999V9.896C5.152 10.808 5.36 11.512 5.776 12.008C6.208 12.504 6.856 12.752 7.72 12.752C8.584 12.752 9.232 12.504 9.664 12.008C10.112 11.496 10.336 10.792 10.336 9.896V0.079999H15.04V9.896C15.04 11.448 14.712 12.776 14.056 13.88C13.4 14.968 12.504 15.792 11.368 16.352C10.248 16.896 9 17.168 7.624 17.168C6.248 17.168 5.016 16.896 3.928 16.352C2.856 15.792 2.008 14.968 1.384 13.88C0.776001 12.792 0.472001 11.464 0.472001 9.896V0.079999H5.152ZM18.7819 10.256C18.7819 8.864 19.0299 7.648 19.5259 6.608C20.0379 5.568 20.7259 4.768 21.5899 4.208C22.4699 3.648 23.4459 3.368 24.5179 3.368C25.4459 3.368 26.2459 3.552 26.9179 3.92C27.5899 4.288 28.1099 4.784 28.4779 5.408V3.536H33.1819V17H28.4779V15.128C28.1099 15.752 27.5819 16.248 26.8939 16.616C26.2219 16.984 25.4299 17.168 24.5179 17.168C23.4459 17.168 22.4699 16.888 21.5899 16.328C20.7259 15.768 20.0379 14.968 19.5259 13.928C19.0299 12.872 18.7819 11.648 18.7819 10.256ZM28.4779 10.256C28.4779 9.392 28.2379 8.712 27.7579 8.216C27.2939 7.72 26.7179 7.472 26.0299 7.472C25.3259 7.472 24.7419 7.72 24.2779 8.216C23.8139 8.696 23.5819 9.376 23.5819 10.256C23.5819 11.12 23.8139 11.808 24.2779 12.32C24.7419 12.816 25.3259 13.064 26.0299 13.064C26.7179 13.064 27.2939 12.816 27.7579 12.32C28.2379 11.824 28.4779 11.136 28.4779 10.256ZM46.5904 3.416C48.1424 3.416 49.3744 3.936 50.2864 4.976C51.1984 6 51.6544 7.392 51.6544 9.152V17H46.9504V9.776C46.9504 9.008 46.7504 8.408 46.3504 7.976C45.9504 7.528 45.4144 7.304 44.7424 7.304C44.0384 7.304 43.4864 7.528 43.0864 7.976C42.6864 8.408 42.4864 9.008 42.4864 9.776V17H37.7824V3.536H42.4864V5.456C42.9024 4.848 43.4624 4.36 44.1664 3.992C44.8704 3.608 45.6784 3.416 46.5904 3.416ZM61.1236 3.368C62.0356 3.368 62.8276 3.552 63.4996 3.92C64.1876 4.288 64.7156 4.784 65.0836 5.408V3.536H69.7876V16.856C69.7876 18.12 69.5476 19.256 69.0676 20.264C68.5876 21.288 67.8356 22.104 66.8116 22.712C65.8036 23.32 64.5236 23.624 62.9716 23.624C60.8916 23.624 59.2276 23.136 57.9796 22.16C56.7316 21.184 56.0196 19.856 55.8436 18.176H60.4756C60.5716 18.608 60.8116 18.944 61.1956 19.184C61.5796 19.424 62.0756 19.544 62.6836 19.544C64.2836 19.544 65.0836 18.648 65.0836 16.856V15.128C64.7156 15.752 64.1876 16.248 63.4996 16.616C62.8276 16.984 62.0356 17.168 61.1236 17.168C60.0516 17.168 59.0756 16.888 58.1956 16.328C57.3316 15.768 56.6436 14.968 56.1316 13.928C55.6356 12.872 55.3876 11.648 55.3876 10.256C55.3876 8.864 55.6356 7.648 56.1316 6.608C56.6436 5.568 57.3316 4.768 58.1956 4.208C59.0756 3.648 60.0516 3.368 61.1236 3.368ZM65.0836 10.256C65.0836 9.392 64.8436 8.712 64.3636 8.216C63.8996 7.72 63.3236 7.472 62.6356 7.472C61.9316 7.472 61.3476 7.72 60.8836 8.216C60.4196 8.696 60.1876 9.376 60.1876 10.256C60.1876 11.12 60.4196 11.808 60.8836 12.32C61.3476 12.816 61.9316 13.064 62.6356 13.064C63.3236 13.064 63.8996 12.816 64.3636 12.32C64.8436 11.824 65.0836 11.136 65.0836 10.256ZM79.0921 0.079999V17H74.3881V0.079999H79.0921ZM92.4989 3.416C94.0509 3.416 95.2829 3.936 96.1949 4.976C97.1069 6 97.5629 7.392 97.5629 9.152V17H92.8589V9.776C92.8589 9.008 92.6589 8.408 92.2589 7.976C91.8589 7.528 91.3229 7.304 90.6509 7.304C89.9469 7.304 89.3949 7.528 88.9949 7.976C88.5949 8.408 88.3949 9.008 88.3949 9.776V17H83.6909V3.536H88.3949V5.456C88.8109 4.848 89.3709 4.36 90.0749 3.992C90.7789 3.608 91.5869 3.416 92.4989 3.416Z" fill="white"/>
</svg>
